<svg width="512" height="512" viewBox="0 0 512 512" fill="none" xmlns="http://www.w3.org/2000/svg">
  <rect width="512" height="512" rx="96" fill="#05070D"/>
  <path d="M139 138H297C355.542 138 403 185.458 403 244C403 286.251 378.277 322.727 342.517 339.769L404 432H320.16L268.336 353.09C255.988 334.285 269.475 309 291.969 309H297C332.899 309 362 279.899 362 244C362 208.101 332.899 179 297 179H180V372H139V138Z" fill="#B8F61A"/>
  <path d="M139 372C139 301.86 195.86 245 266 245H283.5C231.309 261.864 193.612 310.856 188.988 369.399L188.779 372H139Z" fill="#B8F61A"/>
  <path d="M219.355 370C219.355 332.936 233.82 297.837 259.986 271.17C273.945 256.942 290.774 245.471 309.49 237.762L298.097 266.536C288.305 273.115 279.361 280.929 271.471 289.78C250.524 313.283 239.355 341.932 239.355 370H219.355Z" fill="#FBFBFD"/>
  <path d="M201.194 370C201.194 325.413 219.167 282.919 251.021 251.52L231.368 261.307C201.459 291.416 184.194 330.337 184.194 370H201.194Z" fill="#FBFBFD"/>
</svg>
